Title: Night and Day (2008)
Country: South Korea
Language: Korean
Film Genre: Drama
Subtitles: None
Info Link: http://www.imdb.com/title/tt1176096/


Plot or synopsis
Seung-nam, an award-winning painter and married man in his early forties, shows up with his big traveling bag at the airport in Paris. Heâ™s fleeing from an arrest after smoking marijuana while he was drunk at a coincidental gathering. In the 14th district of Paris, he takes refuge at a run-down lodge owned by a Korean. Apart from wandering the streets and prowling in the park, he seems to have nothing else to do. He coincidentally meets his ex-girlfriend Min-sun on the street, but their reunion really doesnâ™t ignite any interest for him. His love and worries for his wife whom he left alone follows him around like his wallet. Seung-nam is introduced to Hyun-joo, a student studying art in Paris, and her roommate Yoo-jeong. Sung-nam falls headlong for Yoo-jeongâ™s neat and sharp beauty and mind-boggling mysteriousness. Seung-nam tries to adapt to this unfamiliar city, but like walking into a dark cave, he falls deep for Yoo-jeong and Paris.


General
Complete name : Night.and.Day.2008.DVDRip.XviD.AC3-BAUM.avi
Format : AVI
Format/Info : Audio Video Interleave
Format profile : OpenDML
File size : 1.46 GiB
Duration : 2h 24mn
Overall bit rate : 1 441 Kbps
Writing application : AVI-Mux GUI 1.17.8.3, Feb 16 201019:42:50

Video #0
ID : 0
Format : MPEG-4 Visual
Format profile : Advanced Simple@L5
Format settings, BVOP : Yes
Format settings, QPel : No
Format settings, GMC : No warppoints
Format settings, Matrix : Default (H.263)
Codec ID : XVID
Codec ID/Hint : XviD
Duration : 2h 24mn
Bit rate : 1 244 Kbps
Width : 720 pixels
Height : 400 pixels
Display aspect ratio : 16:9
Frame rate : 23.976 fps
Color space : YUV
Chroma subsampling : 4:2:0
Bit depth : 8 bits
Scan type : Progressive
Bits/(Pixel*Frame) : 0.180
Stream size : 1.26 GiB (86%)
Writing library : XviD 1.2.1 (UTC 2008-12-04)

Audio #1
ID : 1
Format : AC-3
Format/Info : Audio Coding 3
Mode extension : CM (complete main)
Codec ID : 2000
Duration : 2h 24mn
Bit rate mode : Constant
Bit rate : 192 Kbps
Channel(s) : 2 channels
Channel positions : Front: L R
Sampling rate : 48.0 KHz
Bit depth : 16 bits
Stream size : 199 MiB (13%)
Alignment : Aligned on interleaves
Interleave, duration : 64 ms (1.53 video frames)
Interleave, preload duration : 192 ms
Title : VTS_01_1 T80 2_0ch 192Kbps DELAY 0ms